<?xml version="1.0" standalone="no"?><!DOCTYPE svg PUBLIC "-//W3C//DTD SVG 1.1//EN" "http://www.w3.org/Graphics/SVG/1.1/DTD/svg11.dtd"><svg t="1536023161047" class="icon" style="" viewBox="0 0 1024 1024" version="1.1" xmlns="http://www.w3.org/2000/svg" p-id="2992" xmlns:xlink="http://www.w3.org/1999/xlink" width="200" height="200"><defs><style type="text/css"></style></defs><path d="M632.202663 149.783375c14.905478 3.236718 27.217898 11.175527 36.936237 23.811312 9.722432 12.631692 15.225773 28.346605 16.524348 47.13553 0 5.834892 0.323365 14.905478 0.967024 27.213805 0.650823 12.31242 0.974188 25.272593 0.974188 38.878472 0 13.607926-0.48914 25.915229-1.456165 36.932144-0.970094 11.013845-2.75474 17.818831-5.348821 20.408819-3.88754 4.535293-7.614421 6.640234-11.175527 6.315846-3.564175-0.323365-5.344728 1.461281-5.344728 5.348821 0 1.942235-0.48607 8.744151-1.461281 20.408819-0.967024 11.660574-3.725858 27.865651-8.257058 48.596811-2.588965 11.013845-6.315846 20.893866-11.17962 29.642111-4.854565 8.747221-9.881045 16.685008-15.059997 23.811312-6.481621 7.776104-12.963243 14.904455-19.441794 21.383006-0.650823 8.41874-0.975211 16.524348-0.975211 24.300452l0 20.408819c0 7.125281 0.323365 12.631692 0.975211 16.519232 0.647753 7.772011 2.588965 13.283538 5.834892 16.524348 3.236718 3.236718 9.718339 6.154163 19.436678 8.744151 3.236718 1.298576 9.066493 3.239787 17.491373 5.833869 8.422833 2.588965 18.46556 5.992481 30.131251 10.204409 11.660574 4.206812 23.810289 8.585539 36.44198 13.120832 12.635785 4.5312 24.786523 8.909927 36.447097 13.120832 11.664667 4.211928 22.030759 8.100492 31.101345 11.655458 9.076726 3.565199 15.877619 6.324032 20.408819 8.266267 12.964266 6.478552 21.549805 13.283538 25.761734 20.408819 4.211928 7.129374 7.937786 16.196891 11.175527 27.213805 1.295506 5.830799 3.079128 16.519232 5.344728 32.073486 2.266623 15.549138 4.702092 31.749098 7.29208 48.592718 2.588965 16.851806 4.693906 32.725332 6.315846 47.63081 1.62194 14.897292 2.750647 24.292266 3.402493 28.180829 0.647753 8.422833-0.813528 15.552208-4.378727 21.383006-3.560082 5.829775-11.821233 10.366092-24.777313 13.605879-11.017938 2.588965-27.057239 5.345752-48.111764 8.262174-21.056572 2.917446-45.517683 5.669116-73.379241 8.259104-27.860535 2.588965-58.476833 4.696975-91.844801 6.315846-33.366945 1.62194-68.520583 2.435469-105.452727 2.435469-36.932144 0-72.245418-0.651846-105.937774-1.946328-33.691333-1.295506-64.630996-3.079128-92.814896-5.345752-28.190039-2.269693-53.129035-4.862751-74.840522-7.776104-21.702278-2.917446-38.71679-5.992481-51.025117-9.233292-2.588965-0.647753-5.829775-1.946328-9.718339-3.88754-3.88754-1.947352-7.610328-4.373611-11.175527-7.286963-3.564175-2.917446-6.319939-6.481621-8.257058-10.694573-1.950422-4.211928-2.598174-8.904811-1.950422-14.09195 0.651846-4.532223 2.435469-14.735609 5.348821-30.616298 2.917446-15.872502 6.315846-32.878828 10.204409-51.025117 3.88754-18.138102 7.448646-35.151591 10.69355-51.025117 3.236718-15.872502 5.506411-25.752524 6.800893-29.642111 2.594081-7.776104 6.315846-15.876596 11.175527-24.296359 4.859681-8.422833 13.117762-17.171078 24.78243-26.242687 5.830799-4.535293 16.524348-9.394974 32.077579-14.57802 15.549138-5.187139 31.745005-10.042727 48.592718-14.57802 16.847713-4.5312 32.720216-8.42488 47.622624-11.661597 14.905478-3.239787 24.62484-5.510504 29.160133-6.804986 9.718339-1.946328 18.299785-4.372587 25.752524-7.28594 7.452739-2.917446 11.17962-6.967692 11.17962-12.150738l0-56.369845c-7.129374-5.830799-13.930267-12.316513-20.412912-19.436678-5.829775-5.834892-11.664667-12.801561-17.491373-20.897959-5.829775-8.100492-11.016915-16.681938-15.548114-25.75764-9.076726-17.495466-14.905478-33.529651-17.495466-48.111764-2.588965-14.573927-4.212952-23.159466-4.863774-25.752524-0.647753-2.588965-3.076058-4.697999-7.286963-6.315846-4.211928-1.617847-7.28594-5.02034-9.233292-10.203386-5.182023-11.017938-7.614421-22.682605-7.290033-34.990932 0.323365-12.308327 1.136893-29.80277 2.431376-52.485375 1.947352-22.674419 5.669116-44.38079 11.175527-65.116043 5.511527-20.732184 17.658172-39.845497 36.45119-57.340963 9.718339-8.419763 22.674419-15.386432 38.869263-20.897959 16.200984-5.506411 32.725332-9.556657 49.573045-12.146645 16.84362-2.588965 32.877805-3.88754 48.107671-3.88754 15.225773 0 26.728758 0.975211 34.500768 2.913353 8.423857 2.594081 15.228843 5.348821 20.407796 8.266267 5.187139 2.913353 9.237385 5.668093 12.154831 8.258081 2.913353 2.594081 5.339612 5.024433 7.28594 7.29208 1.943258 2.269693 3.888564 4.049223 5.830799 5.344728 3.240811 2.594081 7.452739 3.402493 12.635785 2.427282C610.17702 146.380882 619.247606 147.190317 632.202663 149.783375L632.202663 149.783375 632.202663 149.783375zM542.79333 682.389692l26.237571 101.074 42.762943-114.681926-40.819684-29.155017L542.79333 682.389692 542.79333 682.389692zM472.813512 637.680421l-38.879496 31.101345 43.74327 114.681926 23.320125-102.050234L472.813512 637.680421 472.813512 637.680421zM818.814828 257.667477c9.070586 1.291412 16.358573 5.830799 21.864984 13.607926 5.510504 7.767917 8.585539 17.166985 9.236362 28.179806 0 3.236718 0.319272 8.585539 0.967024 16.038278 0.651846 7.448646 0.976234 15.059997 0.976234 22.835078 0 7.777127-0.324388 15.068184-0.976234 21.874193-0.647753 6.800893-1.617847 10.847046-2.913353 12.146645-2.594081 2.588965-5.02034 3.726881-7.290033 3.402493-2.2656-0.323365-3.402493 0.809435-3.402493 3.3984 0 1.298576-0.162706 5.344728-0.48607 12.149714-0.319272 6.801916-2.102894 16.686031-5.344728 29.646204-1.295506 6.477528-3.236718 12.308327-5.830799 17.495466-2.594081 5.178953-5.506411 9.714246-8.747221 13.605879-3.241834 4.5312-7.129374 8.744151-11.660574 12.631692-0.647753 5.178953-0.975211 10.042727-0.975211 14.57802l0 22.354124c0.651846 4.535293 1.941212 7.777127 3.892657 9.714246 1.938142 1.946328 5.826705 3.565199 11.656481 4.863774 2.598174 0.647753 8.751315 2.588965 18.469654 5.830799 9.718339 3.239787 20.246113 6.963599 31.587416 11.17962 11.336186 4.211928 21.86396 8.095375 31.583323 11.655458 9.721409 3.565199 16.528442 6.324032 20.411889 8.266267 7.772011 3.888564 13.120832 7.937786 16.038278 12.146645 2.913353 4.211928 5.01727 9.884115 6.315846 17.004279 0.647753 3.241834 1.617847 9.400091 2.913353 18.470677 1.298576 9.070586 2.594081 18.794042 3.88754 29.15604 1.299599 10.366092 2.594081 19.765159 3.888564 28.184923 1.294482 8.422833 1.942235 13.930267 1.942235 16.519232 0.647753 5.192256-0.161682 9.564843-2.428306 13.125949-2.2656 3.561106-7.291057 5.996574-15.06716 7.286963-6.477528 1.298576-14.897292 2.920516-25.263383 4.863774-10.369162 1.942235-23.971971 3.560082-40.819684 4.859681-1.299599-7.777127-3.240811-15.229866-5.834892-22.35924-1.942235-6.478552-4.207835-13.279445-6.804986-20.408819-2.588965-7.125281-5.830799-13.279445-9.718339-18.466584-7.124258-9.718339-14.572904-17.49035-22.350031-23.325241-7.777127-5.830799-15.553231-10.694573-23.325241-14.57802-7.777127-3.888564-15.553231-6.963599-23.326265-9.233292-7.777127-2.2656-15.553231-4.696975-23.329335-7.290033-33.044604-11.661597-59.606563-19.761066-79.690994-24.293289-20.089547-4.535293-31.429827-8.422833-34.018791-11.664667-1.295506-1.942235-2.109034-4.211928-2.432399-6.804986-0.323365-2.588965-0.480954-5.502317-0.480954-8.744151 0-3.244904 0.319272-6.800893 0.966001-10.688433 9.076726-2.598174 15.877619-4.216022 20.408819-4.863774 4.539386-0.647753 8.104585-1.299599 10.694573-1.941212 5.187139-1.295506 10.042727-2.755764 14.57802-4.373611 4.539386-1.62194 6.804986-4.050246 6.804986-7.29208l0-34.014698-1.946328-0.975211-3.88447-1.938142c-1.298576-0.650823-2.593058-2.269693-3.88754-4.863774 3.88754-8.41874 7.772011-18.461467 11.660574-30.127158 3.236718-10.369162 6.639211-23.000853 10.204409-37.907355 3.564175-14.897292 6.639211-32.720216 9.236362-53.451376 1.943258-16.196891 3.236718-30.779004 3.88447-43.73406 0.647753-12.95915 0.971118-24.300452 0.971118-34.018791l0-30.127158c7.776104-1.298576 16.034185-1.946328 24.785499-1.946328 8.743128 0 15.71082 0.647753 20.893866 1.946328 11.016915 3.236718 17.656125 6.478552 19.921725 9.718339 2.269693 3.240811 4.702092 5.830799 7.29208 7.772011 2.588965 1.295506 5.344728 1.784646 8.257058 1.456165C805.693995 255.882831 811.038724 256.368902 818.814828 257.667477L818.814828 257.667477 818.814828 257.667477zM769.246899 568.67479l6.800893 26.242687 17.495466 5.830799 13.607926-34.990932-20.408819-17.495466L769.246899 568.67479 769.246899 568.67479zM718.707852 551.184441l-16.525372 16.519232 0.976234 3.888564 30.127158 8.747221 3.88754-10.694573L718.707852 551.184441 718.707852 551.184441zM287.176558 236.284471c-10.361999-1.299599-20.72809-1.622964-31.093159-0.976234-9.076726 0.651846-18.955724 2.2656-29.650297 4.863774-10.688433 2.588965-20.569478 7.125281-29.641087 13.607926-7.777127 5.178953-13.931291 11.332093-18.466584 18.461467-4.5312 7.129374-7.933693 14.416338-10.203386 21.869077-2.269693 7.452739-3.726881 14.419408-4.369517 20.897959-0.651846 6.477528-0.974188 11.660574-0.974188 15.549138-0.647753 8.422833-1.299599 16.037255-1.943258 22.839171-0.647753 6.804986-0.323365 12.797467 0.967024 17.980513 1.298576 5.183046 2.273786 8.747221 2.917446 10.689457 0.64673 1.946328 1.946328 3.564175 3.88754 4.863774 1.946328 1.289366 3.565199 2.098801 4.859681 2.427282 1.295506 0.323365 2.594081 4.697999 3.888564 13.116739 0.642636 8.428973 2.75474 16.686031 6.318916 24.786523 3.561106 8.096399 7.286963 14.743796 11.175527 19.922748 1.943258 3.240811 4.369517 6.315846 7.286963 9.233292 2.917446 2.913353 5.672186 5.996574 8.262174 9.233292 2.588965 3.239787 5.830799 6.481621 9.718339 9.722432l0 11.655458 0 16.528442c-0.64673 3.88447-2.102894 7.124258-4.372587 9.718339-2.266623 2.588965-6.644327 4.532223-13.121855 5.830799-3.235694 0.647753-8.581446 1.942235-16.034185 3.88754-7.452739 1.943258-15.548114 4.050246-24.300452 6.315846-8.743128 2.2656-17.491373 4.697999-26.237571 7.29208-8.748245 2.588965-15.714913 4.854565-20.893866 6.800893-18.794042 9.070586-30.131251 24.62484-34.018791 46.650483-2.588965 10.366092-5.511527 23.326265-8.748245 38.878472-3.239787 15.549138-5.506411 26.566052-6.804986 33.044604-1.290389 6.477528-1.128707 13.279445 0.48914 20.408819 1.61887 7.129374 6.963599 11.664667 16.038278 13.606903 4.5312 1.299599 10.204409 2.2656 17.005302 2.917446 6.804986 0.647753 13.44522 1.617847 19.921725 2.913353 7.129374 1.298576 14.57802 2.269693 22.354124 2.920516 1.295506-7.780197 3.236718-15.552208 5.830799-23.333428 1.946328-7.125281 4.696975-14.249539 8.262174-21.37482 3.565199-7.129374 7.937786-13.931291 13.116739-20.412912 5.187139-5.834892 11.508102-11.502985 18.955724-17.005302 7.448646-5.510504 14.740726-10.855232 21.864984-16.038278 7.776104-5.829775 16.204054-11.336186 25.275663-16.524348l-9.722432-24.296359 21.379936-16.524348 22.358217 25.270547 11.661597-2.912329c1.294482 0 3.239787-0.651846 5.833869-1.947352 1.290389-0.650823 2.588965-0.974188 3.88447-0.974188l18.46556-21.379936 16.520255 13.607926c3.239787-0.647753 6.16235-1.295506 8.751315-1.946328 2.588965-0.647753 5.502317-1.290389 8.744151-1.942235l9.718339-1.947352c7.125281-1.289366 13.125949-2.588965 17.980513-3.883447 4.863774-1.295506 7.614421-4.535293 8.262174-9.722432 0-2.588965 0.161682-4.693906 0.48914-6.315846 0.319272-1.617847 0.481977-3.074012 0.481977-4.369517l0-2.921539c-5.830799-1.937119-11.337209-3.879354-16.525372-5.829775l-13.601786-3.88447c-4.535293-1.294482-8.100492-2.594081-10.694573-3.88754-5.178953-1.942235-8.096399-4.697999-8.743128-8.258081-0.651846-3.565199-0.976234-8.266267-0.976234-14.097066l0-9.718339c0-3.236718 0.323365-6.477528 0.976234-9.718339 0-3.236718 0.322341-7.124258 0.970094-11.660574-5.187139-7.777127-10.366092-16.200984-15.552208-25.276686-4.532223-7.767917-8.904811-16.681938-13.117762-26.724665-4.216022-10.042727-7.614421-20.569478-10.203386-31.583323-3.241834-14.904455-5.506411-30.777981-6.804986-47.625694-1.299599-16.847713-1.61887-32.073486-0.971118-45.680389C284.263206 267.710204 285.234323 251.832586 287.176558 236.284471L287.176558 236.284471 287.176558 236.284471zM287.176558 236.284471" p-id="2993" fill="#ffffff"></path></svg>