<?xml version="1.0" standalone="no"?><!DOCTYPE svg PUBLIC "-//W3C//DTD SVG 1.1//EN" "http://www.w3.org/Graphics/SVG/1.1/DTD/svg11.dtd"><svg t="1582599217571" class="icon" viewBox="0 0 1024 1024" version="1.1" xmlns="http://www.w3.org/2000/svg" p-id="2080" xmlns:xlink="http://www.w3.org/1999/xlink" width="200" height="200"><defs><style type="text/css"></style></defs><path d="M732.70784 347.42272c-110.85312 0-201.04192 91.22816-201.04192 203.3664 0 96.41984 138.11712 315.0336 180.44928 379.74016a24.60672 24.60672 0 0 0 20.45952 10.96192c8.18176 0 15.94368-4.18816 20.76672-11.20256 18.37056-27.76576 180.40832-275.712 180.40832-379.48928 0.00512-112.14336-90.18368-203.37664-201.04192-203.37664z m9.0112 509.47584l-9.13408 14.73024-9.1392-14.72512c-33.50016-53.94944-142.7968-235.4688-142.7968-306.11456-0.00512-41.1136 15.7952-79.81568 44.48256-108.9792 28.72832-29.2096 66.88768-45.29152 107.44832-45.29152 40.20224 0 78.11584 15.80032 106.77248 44.48768 29.19424 29.24544 45.24032 68.23936 45.17376 109.79328 0 70.29248-109.30688 252.06784-142.80704 306.0992zM401.67936 454.38464H114.92864c-15.36 0-27.8528 12.4928-27.8528 27.84768s12.4928 27.84768 27.8528 27.84768h286.87872c15.2832 0 27.71456-12.4928 27.71456-27.84768s-12.48768-27.84768-27.84256-27.84768zM909.07648 123.47392H114.92864c-15.36 0-27.8528 12.4928-27.8528 27.8528 0 15.36 12.4928 27.8528 27.8528 27.8528h794.14272c15.36 0 27.8528-12.4928 27.8528-27.8528 0.00512-15.36-12.48768-27.8528-27.84768-27.8528zM489.984 785.28H114.92864c-15.36 0-27.8528 12.4928-27.8528 27.8528s12.4928 27.85792 27.8528 27.85792H489.984c15.36 0 27.85792-12.49792 27.85792-27.85792s-12.49792-27.8528-27.85792-27.8528z" p-id="2081"></path><path d="M732.57984 479.89248c-49.98656 0-90.6496 40.66816-90.6496 90.65472s40.66304 90.6496 90.6496 90.6496c24.2688 0 47.09376-9.47712 64.27136-26.68032 17.08032-17.13664 26.44992-39.83872 26.38336-63.93856 0-50.01728-40.66816-90.68544-90.65472-90.68544z m0 132.33664c-22.98368 0-41.68192-18.69824-41.68192-41.68704s18.69312-41.68704 41.68192-41.68704 41.69216 18.69824 41.69216 41.68704-18.70336 41.68704-41.69216 41.68704z" p-id="2082"></path></svg>