<?xml version="1.0" standalone="no"?><!DOCTYPE svg PUBLIC "-//W3C//DTD SVG 1.1//EN" "http://www.w3.org/Graphics/SVG/1.1/DTD/svg11.dtd"><svg t="1582598332573" class="icon" viewBox="0 0 1024 1024" version="1.1" xmlns="http://www.w3.org/2000/svg" p-id="4749" xmlns:xlink="http://www.w3.org/1999/xlink" width="200" height="200"><defs><style type="text/css"></style></defs><path d="M709.908 709.527c0 19.668-6.146 35.034-18.439 46.097-12.292 11.063-27.658 16.595-46.71 16.595h-267.36c-19.053 0-34.419-5.532-46.097-16.595-12.292-11.063-18.439-26.43-18.439-46.097v-341.73c0-19.667 6.146-34.418 18.439-45.481 12.292-11.063 27.658-15.98 46.097-15.98h267.36c22.126 0 38.107 5.532 49.17 15.98 10.449 11.063 15.98 25.814 15.98 45.482l-0.001 341.729z m-65.15-317.76c0-7.99-1.229-12.906-3.073-15.365-1.844-2.46-6.146-3.688-12.292-3.688H391.535c-7.375 0-11.678 1.229-12.292 4.302-1.23 3.073-1.844 6.146-1.844 10.449v110.632h267.36v-106.33z m0 172.71h-267.36v121.08c0 8.605 0.616 13.522 1.845 15.98 1.229 2.459 5.532 3.688 12.907 3.688h237.858c8.605 0 12.907-2.46 14.136-6.761 0.615-4.917 1.23-9.834 1.23-15.98V564.476h-0.616zM400.754 132.397h204.054c17.21 0 30.731-17.209 30.731-33.803 0-20.282-13.522-33.804-30.73-33.804H400.753c-17.21 0-30.731 17.209-30.731 33.804 0 20.281 13.522 33.803 30.73 33.803z m306.08 37.492c20.283 0 33.805-13.522 33.805-27.044V33.445c0-17.21-13.522-27.044-33.804-27.044-20.283 0-33.804 13.522-33.804 27.044v108.787c0 17.21 17.209 27.658 33.804 27.658z" p-id="4750"></path><path d="M829.759 61.103h-20.897c-20.283 0-33.804 17.209-33.804 33.804 0 20.281 17.209 33.803 33.804 33.803h20.283c64.534 0 122.31 51.014 122.31 119.237v574.67c0 64.535-54.702 119.237-122.31 119.237H189.939c-64.534 0-122.31-54.702-122.31-119.237V251.02c0-64.535 54.702-119.237 119.237-119.237 20.283 0 33.804-17.209 33.804-33.803 0-20.282-13.522-33.804-33.804-33.804C84.84 60.488 0.022 145.919 0.022 251.02v575.284a189.913 189.913 0 0 0 190.532 190.533h642.893a189.913 189.913 0 0 0 190.532-190.533v-574.67c-3.688-105.715-89.12-190.531-194.22-190.531z" p-id="4751"></path><path d="M298.727 169.89c20.283 0 33.804-13.522 33.804-27.044V33.445c0-17.21-17.209-27.044-33.804-27.044-20.283 0-33.804 13.522-33.804 27.044v108.787c0 17.21 16.595 27.658 33.804 27.658z" p-id="4752"></path></svg>