<?xml version="1.0" standalone="no"?><!DOCTYPE svg PUBLIC "-//W3C//DTD SVG 1.1//EN" "http://www.w3.org/Graphics/SVG/1.1/DTD/svg11.dtd"><svg t="1582075461406" class="icon" viewBox="0 0 1024 1024" version="1.1" xmlns="http://www.w3.org/2000/svg" p-id="2392" xmlns:xlink="http://www.w3.org/1999/xlink" width="200" height="200"><defs><style type="text/css"></style></defs><path d="M720.8 63.9h-410c-65.7 0-118.7 52.3-118.7 117.1v778.6h640.1V180.9c0-64.7-45.8-117-111.4-117zM416.1 895V767.5h192V895h-192z m352 0.6h-96V755.5c0-28.7-23.3-52-52-52h-216c-28.7 0-52 23.3-52 52v140.1H256v-718c0-27.7 22-49.7 49.7-49.7h412.8c27.7 0 49.7 22.5 49.7 49.7v718z" p-id="2393"></path><path d="M637.2 319.5H387c-17.7 0-32 14.3-32 32s14.3 32 32 32h250.2c17.7 0 32-14.3 32-32s-14.3-32-32-32zM637.2 512.1H387c-17.7 0-32 14.3-32 32s14.3 32 32 32h250.2c17.7 0 32-14.3 32-32s-14.3-32-32-32z" p-id="2394"></path></svg>