<?xml version="1.0" standalone="no"?><!DOCTYPE svg PUBLIC "-//W3C//DTD SVG 1.1//EN" "http://www.w3.org/Graphics/SVG/1.1/DTD/svg11.dtd"><svg t="1541984543807" class="icon" style="" viewBox="0 0 1024 1024" version="1.1" xmlns="http://www.w3.org/2000/svg" p-id="1615" xmlns:xlink="http://www.w3.org/1999/xlink" width="200" height="200"><defs><style type="text/css"></style></defs><path d="M425.968422 124.385848H193.836579V0h232.131843v124.385848zM234.551112 83.671315h150.820791V40.59652H234.551112v43.074795z" p-id="1616"></path><path d="M791.101072 1023.173908H210.476432c-51.217702 0-92.87634-41.658638-92.87634-92.994353V197.317967c0-51.335715 41.658638-92.994353 92.87634-92.994353h580.62464c51.099689 0 92.758327 41.658638 92.758326 92.994353v732.861588c0 51.335715-41.658638 92.994353-92.758326 92.994353zM210.476432 144.920134c-28.795206 0-52.27982 23.484614-52.27982 52.27982v732.979601c0 28.913219 23.484614 52.397833 52.27982 52.397833h580.62464c28.795206 0 52.161807-23.484614 52.161807-52.397833V197.317967c0-28.913219-23.366601-52.397833-52.161807-52.397833H210.476432z m538.611963 548.997119h-40.360494c-32.217587 0-58.416503-26.198917-58.416503-58.534517V239.212631c0-32.217587 26.198917-58.534517 58.416503-58.534516h40.360494c32.217587 0 58.416503 26.31693 58.416503 58.534516v396.170105c0 32.3356-26.198917 58.534517-58.416503 58.534517z m-40.360494-472.524606c-9.79509 0-17.819984 8.024893-17.819984 17.819984v396.170105c0 9.913104 8.024893 17.937997 17.819984 17.937997h40.360494c9.79509 0 17.701971-8.024893 17.70197-17.937997V239.212631c0-9.79509-7.90688-17.819984-17.70197-17.819984h-40.360494zM313.265875 693.917253c-88.037801 0-119.429296-52.161807-119.429296-100.901234 0-26.434943 19.118128-48.621413 41.186586-74.230264 22.068457-25.490838 46.969229-54.52207 58.888556-93.348392l19.354154-63.137029 19.472168 63.137029c11.919327 38.826322 36.820099 67.857554 58.888556 93.348392 22.068457 25.608851 41.068572 47.795321 41.068572 74.230264 0 48.739426-31.273482 100.901233-119.429296 100.901234z m0-212.187623c-14.397603 25.254812-32.217587 45.789098-47.441281 63.609082-16.1678 18.646076-31.273482 36.230033-31.273482 47.677307 0 39.416388 27.261035 60.304714 78.714763 60.304714 51.571741 0 78.832776-20.888325 78.832777-60.304714 0-11.447274-15.223695-29.031232-31.273482-47.677307-15.341708-17.819984-33.043679-38.35427-47.559295-63.609082z" p-id="1617"></path></svg>