<?xml version="1.0" standalone="no"?><!DOCTYPE svg PUBLIC "-//W3C//DTD SVG 1.1//EN" "http://www.w3.org/Graphics/SVG/1.1/DTD/svg11.dtd"><svg t="1541985441399" class="icon" style="" viewBox="0 0 1024 1024" version="1.1" xmlns="http://www.w3.org/2000/svg" p-id="5512" xmlns:xlink="http://www.w3.org/1999/xlink" width="200" height="200"><defs><style type="text/css"></style></defs><path d="M757.408 200.224c-9.792-8.8-23.936-10.72-35.68-4.832-11.776 5.888-18.752 18.336-17.6 31.456 3.488 39.552 2.56 80.864-1.536 112.096-81.44-132.672-259.04-262.464-267.808-268.832-10.24-7.424-23.872-8.128-34.848-1.76-10.944 6.368-17.12 18.56-15.744 31.136 0.288 2.528 23.072 219.68-24.384 358.528-13.696-26.624-31.968-53.92-54.08-68.64-45.888-30.56-133.92-36.704-143.808-37.312-13.024-0.928-25.216 6.656-30.784 18.624-5.536 11.936-3.072 26.208 6.016 35.744C137.728 406.976 192 465.856 192 624c0 2.4 0.256 4.704 0.768 6.976 7.68 115.232 72.544 233.92 173.184 293.088 5.024 2.944 10.624 4.416 16.224 4.416 0.192 0 0.384-0.032 0.64 0 17.664 0 32-14.304 32-32 0-5.312-1.312-10.336-3.584-14.752-4.288-15.68-6.432-44.64-6.432-60.896 0-1.312-0.064-2.592-0.224-3.872-1.024-30.272-5.28-55.648-11.04-76.672 21.376 13.344 44.48 35.872 64.064 51.264 6.976 5.504 15.872 7.808 24.672 6.464 8.768-1.376 16.576-6.272 21.536-13.632 34.144-50.176 29.376-154.72 20.448-223.808 88.288 59.456 211.104 154.176 208.64 250.688 0 5.536-0.32 10.944-0.768 16.384-1.184 13.248 5.984 25.856 17.952 31.616 12 5.856 26.272 3.52 35.968-5.6C856.928 786.4 896 705.312 896 608.8 902.976 334.592 763.36 205.568 757.408 200.224z" p-id="5513" fill="#ffffff"></path></svg>