<?xml version="1.0" standalone="no"?><!DOCTYPE svg PUBLIC "-//W3C//DTD SVG 1.1//EN" "http://www.w3.org/Graphics/SVG/1.1/DTD/svg11.dtd"><svg t="1524709172188" class="icon" style="" viewBox="0 0 1024 1024" version="1.1" xmlns="http://www.w3.org/2000/svg" p-id="565" xmlns:xlink="http://www.w3.org/1999/xlink" width="200" height="200"><defs><style type="text/css"></style></defs><path d="M650.83442 224.221034c92.709463 0 168.155785 69.691941 168.155785 156.007649 0 26.853776-7.672507 53.068176-21.738771 76.725073-21.099395 34.526283-54.986302 60.101307-95.906341 72.249444-10.869385 3.196878-19.181268 4.475629-26.853776 4.475629-17.902517 0-31.96878-14.066263-31.96878-31.96878 0-17.902517 14.066263-31.96878 31.96878-31.968781 1.278751 0 3.836254 0 7.033132-1.278751 27.493151-7.672507 49.231922-23.656898 61.380058-44.756293 8.311883-13.426888 12.148137-28.132527 12.148137-43.477541 0-50.510673-46.67442-92.070088-103.578849-92.070088-19.820644 0-39.001912 5.115005-56.265054 14.705639-30.050654 17.263141-47.953171 46.035044-47.95317 77.364449v267.89838c0 54.346927-30.050654 104.218224-79.921951 132.350752-26.853776 15.345015-56.904429 23.017522-87.594459 23.017522-92.709463 0-168.155785-69.691941-168.155785-156.007649 0-26.853776 7.672507-53.068176 21.73877-76.725073 21.099395-34.526283 54.986302-60.101307 95.906342-72.249444 11.508761-3.196878 19.181268-4.475629 26.853775-4.47563 17.902517 0 31.96878 14.066263 31.968781 31.968781 0 17.902517-14.066263 31.96878-31.968781 31.96878-1.278751 0-3.836254 0-7.033131 1.278752-27.493151 8.311883-49.231922 24.296273-61.380059 44.756292-8.311883 13.426888-12.148137 28.132527-12.148136 43.477542 0 50.510673 46.67442 92.070088 104.218224 92.070088 19.820644 0 39.001912-5.115005 56.265054-14.705639 30.050654-17.263141 47.953171-46.035044 47.95317-77.364449V380.228683c0-54.346927 30.050654-104.218224 79.921952-132.350751 26.2144-15.98439 56.265054-23.656898 86.955083-23.656898zM0.589424 511.940059c0 282.60402 228.896468 511.500488 511.500488 511.500487 282.60402 0 511.500488-228.896468 511.500488-511.500487 0-282.60402-228.896468-511.500488-511.500488-511.500488-282.60402 0-511.500488 228.896468-511.500488 511.500488z" p-id="566"></path></svg>