<?xml version="1.0" standalone="no"?><!DOCTYPE svg PUBLIC "-//W3C//DTD SVG 1.1//EN" "http://www.w3.org/Graphics/SVG/1.1/DTD/svg11.dtd"><svg t="1582598316708" class="icon" viewBox="0 0 1024 1024" version="1.1" xmlns="http://www.w3.org/2000/svg" p-id="4508" xmlns:xlink="http://www.w3.org/1999/xlink" width="200" height="200"><defs><style type="text/css"></style></defs><path d="M412.467 164.454h183.757c15.309 0 27.546-15.36 27.546-30.617 0-18.432-12.288-30.669-27.546-30.669H412.467c-15.309 0-27.545 15.36-27.545 30.669 0 18.38 12.288 30.617 27.545 30.617z m275.61 33.69c18.432 0 30.617-12.237 30.617-24.474V75.674c0-15.36-12.236-24.474-30.617-24.474-18.432 0-30.618 12.237-30.618 24.474v97.894c0 15.36 15.309 24.576 30.618 24.576z m110.131-98.048h-18.432a30.669 30.669 0 0 0 0 61.235h18.432c58.163 0 110.285 45.927 110.285 107.162V785.92c0 58.163-49.05 107.162-110.285 107.162H222.566c-58.112 0-110.233-48.999-110.233-107.162V271.616c0-58.163 48.998-107.162 107.161-107.162 18.432 0 30.618-15.36 30.618-30.617 0-18.432-12.237-30.669-30.618-30.669C127.744 100.096 51.2 176.64 51.2 271.616v517.325a171.213 171.213 0 0 0 171.52 171.52h578.56A171.213 171.213 0 0 0 972.8 788.992V271.616c-3.072-94.976-79.616-171.52-174.592-171.52z m-477.594 98.048c18.432 0 30.618-12.237 30.618-24.474V75.674c0-15.36-15.309-24.474-30.618-24.474-18.432 0-30.617 12.237-30.617 24.474v97.894c0 15.36 15.309 24.576 30.617 24.576z m9.216 547.942l15.36 12.288c3.072 3.072 6.144 3.072 9.114 3.072 3.072 0 9.165-3.072 9.165-6.144 33.69-39.833 55.091-91.904 61.235-156.262h211.251v104.09c0 9.164-3.072 9.164-6.144 9.164h-67.328c-6.144 0-9.113 3.072-12.237 6.144-3.072 3.072-3.072 9.165-3.072 12.288l6.144 15.258c3.124 6.144 9.216 9.165 15.36 9.165h67.277c30.618 0 45.927-18.432 45.927-49.05V323.635a14.49 14.49 0 0 0-15.31-15.36H394.24a14.49 14.49 0 0 0-15.309 15.36v238.746c0 67.328-18.38 119.398-52.07 162.304-3.072 6.144-3.072 15.257 3.072 21.401zM430.9 354.202h208.127v76.544H430.9v-76.544z m0 122.47h208.127v76.595H430.9v-76.595z" p-id="4509"></path></svg>