<?xml version="1.0" standalone="no"?><!DOCTYPE svg PUBLIC "-//W3C//DTD SVG 1.1//EN" "http://www.w3.org/Graphics/SVG/1.1/DTD/svg11.dtd"><svg t="1582598619046" class="icon" viewBox="0 0 1024 1024" version="1.1" xmlns="http://www.w3.org/2000/svg" p-id="6270" xmlns:xlink="http://www.w3.org/1999/xlink" width="200" height="200"><defs><style type="text/css"></style></defs><path d="M895.9 933.7h-61.7c-9.3 15.8-26.3 26.6-45.9 26.6s-36.7-10.7-46-26.6h-121c-9.3 15.8-26.3 26.6-46 26.6-19.6 0-36.7-10.7-45.9-26.6h-62.5c-13.8 0-25-11.1-25-24.8v-1.7H200c-53.2 0-96.3-42.8-96.3-95.7V159.3c0-51.9 42.3-94 94.6-94h540.5c55.3 0 100.1 44.5 100.1 99.5V589h57c13.8 0 25 11.1 25 24.8v269.4h0.1v25.7c-0.1 13.6-11.3 24.8-25.1 24.8zM788.3 165.5c0-27.5-22.4-49.7-50-49.7h-534c-27.6 0-50 22.2-50 49.7v641.3c0 27.5 22.4 49.7 50 49.7H442v-88.1c0-12.7 4.4-25 12.5-34.9l75-91.8h116v-3.2c0-27.4 22.4-49.7 50-49.7h92.7V165.5h0.1z m82 479c0-2.7-2.2-5-5-5H701c-2.8 0-5 2.2-5 5v156.7h-91.6c-14 0-25.4-11.3-25.4-25.3 0-13.9 11.4-25.3 25.4-25.3h41v-50c0-4.6-3.7-8.3-8.3-8.3h-79.7c-2.5 0-4.9 1.1-6.5 3.1l-56.6 69.2c-1.2 1.5-1.8 3.3-1.8 5.2v113.3h35.1c8.8-17.6 26.7-29.7 47.7-29.7 21 0 38.9 12.1 47.7 29.7h117.6c8.7-17.6 26.7-29.7 47.7-29.7 21 0 38.9 12.1 47.7 29.7h29.4c2.8 0 5-2.2 5-5V644.5h-0.1zM639.9 478.3H285.8c-14 0-25.4-11.3-25.4-25.3 0-13.9 11.4-25.3 25.4-25.3h354.1c14 0 25.4 11.3 25.4 25.3 0.1 14-11.3 25.3-25.4 25.3z m0-158.9H285.8c-14 0-25.4-11.3-25.4-25.3s11.4-25.3 25.4-25.3h354.1c14 0 25.4 11.3 25.4 25.3s-11.3 25.3-25.4 25.3z" p-id="6271"></path></svg>