<?xml version="1.0" standalone="no"?><!DOCTYPE svg PUBLIC "-//W3C//DTD SVG 1.1//EN" "http://www.w3.org/Graphics/SVG/1.1/DTD/svg11.dtd"><svg t="1535965073932" class="icon" style="" viewBox="0 0 1024 1024" version="1.1" xmlns="http://www.w3.org/2000/svg" p-id="1619" xmlns:xlink="http://www.w3.org/1999/xlink" width="200" height="200"><defs><style type="text/css"></style></defs><path d="M273.516444 720.303186M340.568583 78.060867c-2.416026 0-4.832052 0-7.248078 0-77.80197 15.773242-152.999626 40.686654-228.52781 64.547085-19.779486 6.248308-34.299177 16.156982-39.655162 36.928051 0 195.542558 0 391.085116 0 586.626651 0 51.314713 35.542494 47.747467 62.645782 38.232766 60.922535-21.3871 122.989125-39.778982 185.294147-56.814983 21.378913-5.845125 28.54308-14.023388 28.430516-36.573987C340.458065 500.028341 340.700589 289.044092 340.568583 78.060867zM306.673611 698.373735c0.037862 16.012695 1.050935 14.07046-14.84408 18.568914-57.623395 16.309454-114.826212 34.222429-171.692361 53.028751-23.037692 7.618515-20.162202 6.952342-20.006659-13.293771 0.704035-91.724051 0.308015-183.457312 0.308015-275.187503 0-89.316212 0.692778-178.641633-0.503467-267.941472-0.287549-21.442358-0.880043-34.015721 20.824281-40.033785 56.555064-15.681144 112.455211-33.760918 168.426991-51.482535 16.471137-5.214768 17.585517-1.223874 17.527189 18.721387C306.165028 326.626036 306.229496 512.500397 306.673611 698.373735zM956.393229 137.572262c-0.119727-38.271652-19.436678-51.261501-56.199976-40.225143-64.25442 19.288299-127.960347 40.545438-192.691627 58.033741-22.617114 6.110161-27.191292 16.473183-27.082822 37.600363 0.784876 152.046928 0.420579 304.099996 0.420579 456.152041 0 51.939953 0 96.717785 0 151.822824 0 18.859533 14.83794 19.831674 18.212804 18.786878 82.148975-25.438369 153.135726-49.813522 232.099149-74.495668 20.87954-6.526647 25.482371-23.648606 25.486464-42.912345C956.675662 514.079358 956.980607 325.824787 956.393229 137.572262zM921.699056 689.49553c0.052189 17.59575-2.471284 24.680099-19.775392 29.582759-57.623395 16.324804-104.516402 31.425733-161.428599 50.122561-20.527522 6.743588-24.577768 3.364631-24.411993-16.285918 0.783853-92.939739 0.349971-179.74885 0.348947-272.694729-0.001023-89.324398 0.678452-170.189124-0.49528-259.498172-0.281409-21.444405 5.245468-31.875988 27.124777-37.747719 55.532781-14.900362 100.242052-32.157397 154.930605-49.972135 21.562085-7.023974 23.798009 4.609994 23.725354 26.339902C921.097352 342.816786 921.152611 506.018775 921.699056 689.49553zM618.33277 154.36267c-71.625294-19.732413-142.648884-41.828664-213.237569-65.040319-23.733541-7.804756-31.518854-5.482875-31.405267 21.555945 0.838088 200.439078 0.688685 400.884296 0.092098 601.325421-0.060375 20.190855 5.695722 28.993335 26.347065 34.795481 69.223594 19.445888 137.552819 42.063001 206.313879 63.175855 41.10621 12.620435 41.23924 12.375865 41.255613-29.225625 0.036839-96.599082 0.011256-193.198164 0.011256-289.797245 0-99.014084-0.661056-198.035332 0.48914-297.036114C648.469138 170.888042 641.717364 160.805406 618.33277 154.36267zM586.325799 769.071913c-55.403844-19.399839-100.632955-35.893488-157.215648-51.635007-16.243963-4.51892-21.097504-14.716166-21.068851-30.435173 0.332575-184.810123 0.473791-359.562169-0.140193-544.370245-0.071631-21.650089 2.341325-17.769712 20.410865-12.008498 57.103556 18.203594 102.728686 37.371142 160.600745 52.768831 22.350031 5.946432 24.02723 10.653641 23.898293 29.481452-0.621147 90.589205-0.279363 181.185572-0.279363 271.77887 0 89.385796-0.807389 172.815951 0.479931 262.183328C613.409644 774.573207 613.004415 778.412652 586.325799 769.071913z" p-id="1620"></path></svg>