<?xml version="1.0" standalone="no"?><!DOCTYPE svg PUBLIC "-//W3C//DTD SVG 1.1//EN" "http://www.w3.org/Graphics/SVG/1.1/DTD/svg11.dtd"><svg t="1582598569671" class="icon" viewBox="0 0 1024 1024" version="1.1" xmlns="http://www.w3.org/2000/svg" p-id="5553" xmlns:xlink="http://www.w3.org/1999/xlink" width="200" height="200"><defs><style type="text/css"></style></defs><path d="M426.666667 426.666667l170.665608 0 0 85.332275-170.665608 0 0-85.332275ZM981.332628 85.334039l-42.666667 0L938.665961 256l-256.000353 0L682.665608 85.334039 341.333686 85.334039 341.333686 256 85.333333 256 85.333333 85.334039 42.666667 85.334039c-23.56271 0-42.666314 19.103604-42.666314 42.665961l0 853.332628c0 23.566238 19.103604 42.666667 42.666314 42.666667l938.665961 0c23.565533 0 42.666667-19.100781 42.666667-42.666667L1023.999294 128C1023.999647 104.437642 1004.89816 85.334039 981.332628 85.334039zM938.665961 938.665961 85.333333 938.665961 85.333333 341.333686l853.332628 0L938.665961 938.665961zM426.666667 767.998589l170.665608 0 0 85.333686-170.665608 0 0-85.333686ZM767.998942 0.000353l85.333686 0 0 170.665961-85.333686 0 0-170.665961ZM170.666314 767.998589l170.667019 0 0 85.333686-170.667019 0 0-85.333686ZM170.666667 0.000353l85.333333 0 0 170.665961-85.333333 0 0-170.665961ZM682.667019 426.667019l170.664197 0 0 85.331922-170.664197 0 0-85.331922ZM426.667372 597.333686l170.665608 0 0 85.332275-170.665608 0 0-85.332275ZM170.667019 597.333686l170.667019 0 0 85.332275-170.667019 0 0-85.332275ZM682.667725 597.334039l170.664197 0 0 85.331922-170.664197 0 0-85.331922ZM682.667019 768l170.664197 0 0 85.331569-170.664197 0 0-85.331569ZM170.666667 426.667019l170.665608 0 0 85.332275-170.665608 0 0-85.332275Z" p-id="5554"></path></svg>