<?xml version="1.0" standalone="no"?><!DOCTYPE svg PUBLIC "-//W3C//DTD SVG 1.1//EN" "http://www.w3.org/Graphics/SVG/1.1/DTD/svg11.dtd"><svg t="1535697441520" class="icon" style="" viewBox="0 0 1024 1024" version="1.1" xmlns="http://www.w3.org/2000/svg" p-id="3722" xmlns:xlink="http://www.w3.org/1999/xlink" width="200" height="200"><defs><style type="text/css"></style></defs><path d="M676.16 535.36a292.8 292.8 0 1 0-328.64 0C145.6 594.24 0 758.08 0 951.04V1024h292.48v-72.96H72.96c0-198.4 189.76-360 426.24-365.44h24.64a507.52 507.52 0 0 1 197.76 44.48l-218.56 218.24-103.04-103.36-51.52 51.84 155.2 155.2 28.48-28.48 256-256a345.6 345.6 0 0 1 162.24 283.84h-219.2V1024H1024v-72.96c0-192.96-145.6-356.8-347.84-415.68zM512 512a219.2 219.2 0 1 1 219.2-219.2A219.2 219.2 0 0 1 512 512z" p-id="3723"></path></svg>