<?xml version="1.0" standalone="no"?><!DOCTYPE svg PUBLIC "-//W3C//DTD SVG 1.1//EN" "http://www.w3.org/Graphics/SVG/1.1/DTD/svg11.dtd"><svg t="1582598743013" class="icon" viewBox="0 0 1024 1024" version="1.1" xmlns="http://www.w3.org/2000/svg" p-id="7726" xmlns:xlink="http://www.w3.org/1999/xlink" width="200" height="200"><defs><style type="text/css"></style></defs><path d="M979.2 889.6H832V416c0-32-25.6-64-64-64h-115.2V243.2c0-32-25.6-64-64-64H473.6c-32 0-64 25.6-64 64v352H300.8c-32 0-64 25.6-64 64v230.4H128V153.6c0-19.2-12.8-32-32-32s-32 12.8-32 32v736c0 32 25.6 64 64 64h851.2c19.2 0 32-12.8 32-32s-19.2-32-32-32z m-678.4 0v-230.4h115.2v230.4H300.8z m179.2 0v-640h115.2v640H480z m172.8 0V422.4H768v467.2h-115.2z" p-id="7727"></path></svg>