<?xml version="1.0" standalone="no"?><!DOCTYPE svg PUBLIC "-//W3C//DTD SVG 1.1//EN" "http://www.w3.org/Graphics/SVG/1.1/DTD/svg11.dtd"><svg t="1523946490620" class="icon" style="" viewBox="0 0 1024 1024" version="1.1" xmlns="http://www.w3.org/2000/svg" p-id="2811" xmlns:xlink="http://www.w3.org/1999/xlink" width="200" height="200"><defs><style type="text/css"></style></defs><path d="M585.105408 804.585472l365.69088 0 0-73.138176-365.69088 0 0 73.138176zm-219.414528-292.552704l585.105408 0 0-73.138176-585.105408 0 0 73.138176zm365.69088-292.552704l219.414528 0 0-73.138176-219.414528 0 0 73.138176zm292.552704 475.398144l0 146.276352q0 14.856192-10.856448 25.71264t-25.71264 10.856448l-950.796288 0q-14.856192 0-25.71264-10.856448t-10.856448-25.71264l0-146.276352q0-14.856192 10.856448-25.71264t25.71264-10.856448l950.796288 0q14.856192 0 25.71264 10.856448t10.856448 25.71264zm0-292.552704l0 146.276352q0 14.856192-10.856448 25.71264t-25.71264 10.856448l-950.796288 0q-14.856192 0-25.71264-10.856448t-10.856448-25.71264l0-146.276352q0-14.856192 10.856448-25.71264t25.71264-10.856448l950.796288 0q14.856192 0 25.71264 10.856448t10.856448 25.71264zm0-292.552704l0 146.276352q0 14.856192-10.856448 25.71264t-25.71264 10.856448l-950.796288 0q-14.856192 0-25.71264-10.856448t-10.856448-25.71264l0-146.276352q0-14.856192 10.856448-25.71264t25.71264-10.856448l950.796288 0q14.856192 0 25.71264 10.856448t10.856448 25.71264z" p-id="2812"></path></svg>