<?xml version="1.0" standalone="no"?><!DOCTYPE svg PUBLIC "-//W3C//DTD SVG 1.1//EN" "http://www.w3.org/Graphics/SVG/1.1/DTD/svg11.dtd"><svg t="1582077590633" class="icon" viewBox="0 0 1024 1024" version="1.1" xmlns="http://www.w3.org/2000/svg" p-id="3759" xmlns:xlink="http://www.w3.org/1999/xlink" width="200" height="200"><defs><style type="text/css"></style></defs><path d="M1002.935799 836.00115h-28.673514v-157.385732a63.71892 63.71892 0 0 0-67.542055-63.71892H892.064879v-573.470279a15.92973 15.92973 0 0 0-7.646271-12.743784L839.178175 2.557677a17.204108 17.204108 0 0 0-26.124757 12.743784v186.696436l-12.743784-31.222271a116.605623 116.605623 0 0 0-110.233731-69.453623H328.789627a117.242813 117.242813 0 0 0-110.233732 70.090812l-12.106594 30.585082V17.850218A17.204108 17.204108 0 0 0 180.324543 2.557677l-42.691676 25.487568A15.92973 15.92973 0 0 0 127.43784 43.337786v573.470279h-14.655352a63.71892 63.71892 0 0 0-67.542055 63.71892v157.385733H16.566919a15.92973 15.92973 0 0 0-16.566919 15.29254v84.108975a15.92973 15.92973 0 0 0 16.566919 15.29254H89.206488v40.780109a32.496649 32.496649 0 0 0 33.771027 30.585082h88.569299a32.496649 32.496649 0 0 0 33.771028-30.585082v-40.780109h528.867035v40.780109a32.496649 32.496649 0 0 0 33.771028 30.585082h88.569298a32.496649 32.496649 0 0 0 33.771028-30.585082v-40.780109h72.639568a15.92973 15.92973 0 0 0 16.56692-15.29254v-86.020542a15.92973 15.92973 0 0 0-16.56692-15.292541zM228.750922 287.381249h562.000874v150.376651H228.750922zM249.140977 767.184716a30.585082 30.585082 0 0 1-31.85946 28.673514h-57.347028A29.947892 29.947892 0 0 1 127.43784 767.184716a29.947892 29.947892 0 0 1 31.85946-28.673514h57.347028a30.585082 30.585082 0 0 1 31.85946 28.673514z m442.209304 7.009082a32.496649 32.496649 0 0 1-33.771027 30.585081H361.923465a32.496649 32.496649 0 0 1-33.771027-30.585081V576.027957a32.496649 32.496649 0 0 1 33.771027-30.585082h295.655789a31.85946 31.85946 0 0 1 33.771027 30.585082zM892.064879 767.184716a29.947892 29.947892 0 0 1-31.85946 28.673514h-57.347028a29.947892 29.947892 0 0 1-31.85946-28.673514 29.947892 29.947892 0 0 1 31.222271-28.673514h57.347028a29.947892 29.947892 0 0 1 31.85946 28.673514z m-247.866599-169.492327H375.304438a15.292541 15.292541 0 0 0-15.29254 15.292541 15.292541 15.292541 0 0 0 15.29254 15.292541h268.893842a15.292541 15.292541 0 0 0 15.292541-15.292541 15.292541 15.292541 0 0 0-15.292541-15.292541z m0 122.340327H375.304438a15.292541 15.292541 0 0 0-15.29254 15.29254 15.292541 15.292541 0 0 0 15.29254 15.292541h268.893842a15.292541 15.292541 0 0 0 15.292541-15.292541 15.292541 15.292541 0 0 0-15.292541-15.29254z m0-63.71892H375.304438a14.655352 14.655352 0 0 0-15.29254 14.655351 15.292541 15.292541 0 0 0 15.29254 15.292541h268.893842a15.292541 15.292541 0 0 0 15.292541-15.292541 14.655352 14.655352 0 0 0-15.292541-14.655351z" p-id="3760"></path></svg>