<?xml version="1.0" standalone="no"?><!DOCTYPE svg PUBLIC "-//W3C//DTD SVG 1.1//EN" "http://www.w3.org/Graphics/SVG/1.1/DTD/svg11.dtd"><svg t="1582598326441" class="icon" viewBox="0 0 1024 1024" version="1.1" xmlns="http://www.w3.org/2000/svg" p-id="4627" xmlns:xlink="http://www.w3.org/1999/xlink" width="200" height="200"><defs><style type="text/css"></style></defs><path d="M860.713514 1019.387387H163.286486A159.135135 159.135135 0 0 1 4.612613 860.713514V242.623423a159.135135 159.135135 0 0 1 158.673873-158.673873h31.827028a31.827027 31.827027 0 0 1 0 63.192792h-31.827028a95.481081 95.481081 0 0 0-95.019819 95.481081v618.090091a95.481081 95.481081 0 0 0 95.019819 95.481081h697.427028a95.481081 95.481081 0 0 0 95.481081-95.481081V258.306306a109.78018 109.78018 0 0 0-95.481081-111.163964H830.27027a31.827027 31.827027 0 1 1 0-63.192792h31.365766A171.589189 171.589189 0 0 1 1019.387387 258.306306v602.407208a159.135135 159.135135 0 0 1-158.673873 158.673873z" p-id="4628"></path><path d="M860.713514 1024H163.286486A163.747748 163.747748 0 0 1 0 860.713514V242.623423a163.747748 163.747748 0 0 1 163.286486-163.286486h31.827028a36.43964 36.43964 0 0 1 0 72.418018h-31.827028a92.252252 92.252252 0 0 0-92.252252 92.252252v618.09009a92.252252 92.252252 0 0 0 92.252252 92.252253h697.427028a92.252252 92.252252 0 0 0 92.252252-92.252253V258.306306a105.167568 105.167568 0 0 0-92.252252-106.551351H830.27027a36.43964 36.43964 0 1 1 0-72.418018h31.365766A176.201802 176.201802 0 0 1 1024 258.306306v602.407208a163.747748 163.747748 0 0 1-163.286486 163.286486zM163.286486 88.562162A154.522523 154.522523 0 0 0 9.225225 242.623423v618.090091A154.522523 154.522523 0 0 0 163.286486 1014.774775h697.427028A154.522523 154.522523 0 0 0 1014.774775 860.713514V258.306306a167.437838 167.437838 0 0 0-154.061261-169.744144H830.27027a27.214414 27.214414 0 1 0 0 53.967568h31.365766a114.854054 114.854054 0 0 1 98.70991 115.776576v602.407208a99.632432 99.632432 0 0 1-99.632432 99.632432H163.286486a99.632432 99.632432 0 0 1-99.632432-99.632432V242.623423a100.093694 100.093694 0 0 1 99.632432-100.093693h31.827028a27.214414 27.214414 0 0 0 0-53.967568z" p-id="4629"></path><path d="M591.336937 147.142342H432.663063a31.827027 31.827027 0 1 1 0-63.192792h158.673874a31.827027 31.827027 0 1 1 0 63.192792zM317.809009 233.859459a31.827027 31.827027 0 0 1-31.827027-31.827027V36.43964a31.827027 31.827027 0 0 1 63.654054 0v165.592792a31.827027 31.827027 0 0 1-31.827027 31.827027z m388.381982 0a31.827027 31.827027 0 0 1-31.827027-31.827027V36.43964a31.827027 31.827027 0 1 1 63.654054 0v165.592792a31.827027 31.827027 0 0 1-31.827027 31.827027zM738.018018 322.882883v454.342342Q738.018018 830.27027 678.515315 830.27027h-71.495495l-14.299099-51.661261c27.675676 0 50.738739 3.228829 70.111711 3.228829a18.45045 18.45045 0 0 0 21.218018-20.756757V373.16036H352.864865V553.513514a577.499099 577.499099 0 0 1-61.347748 276.756756l-41.052252-36.900901a545.672072 545.672072 0 0 0 46.126126-237.088288V322.882883z m-244.92973 63.654054h52.122523v39.668468h96.864865v46.126127H544.288288v46.126126h114.392793v46.126126H378.234234v-46.126126h114.854054v-46.126126H393.917117v-46.126127h99.171171zM396.223423 599.63964h239.394595v147.603603H396.223423z m187.272072 100.554955V645.765766H447.884685v56.273874z" p-id="4630"></path><path d="M292.900901 839.495495l-46.126126-43.358558v-3.228829a535.063063 535.063063 0 0 0 46.126126-234.781982V319.654054h449.72973v461.261261c0 24.446847-11.07027 54.428829-64.115316 54.428829h-74.724324l-17.066667-61.347748h76.108108c16.144144 0 16.605405-5.073874 16.605406-16.144144V377.772973h-322.882883V553.513514a585.801802 585.801802 0 0 1-61.809009 280.446846z m-36.900901-46.126126l34.133333 30.904505A580.266667 580.266667 0 0 0 348.252252 553.513514V369.009009h340.410811v390.688288a23.063063 23.063063 0 0 1-25.830631 25.36937c-16.605405 0-35.517117 0-58.118918-2.306307H599.63964l11.531531 41.974775h67.805406c36.900901 0 54.89009-14.76036 54.89009-46.126126V328.879279H302.587387v230.630631a549.362162 549.362162 0 0 1-46.587387 234.320721z m384.230631-42.436036H391.610811v-156.828828h248.61982z m-239.394595-9.225225h230.630631v-138.378378h-230.630631z m187.272072-37.823423H443.272072v-65.037838h144.836036z m-135.610811-9.225226h126.385586v-46.126126H452.497297z m210.796397-126.385585H373.621622V512h114.854054v-36.43964H389.304505V421.592793h99.171171v-39.668469h61.347747v39.668469H645.765766v53.967567h-96.864865v36.43964h114.392793z m-280.446847-8.302703h271.221621v-38.745946h-113.931531v-54.89009h97.326126v-35.517117h-96.864865v-39.668468h-42.897297v39.668468H398.52973v35.517117h99.171171v54.89009H382.846847z m322.882883-322.882883a36.900901 36.900901 0 0 1-36.43964-36.439639V36.43964a36.43964 36.43964 0 0 1 72.879279 0v165.592792a36.43964 36.43964 0 0 1-35.978378 36.43964z m0-230.63063a27.214414 27.214414 0 0 0-27.214415 27.214414v168.36036a27.675676 27.675676 0 0 0 27.214415 27.214415 27.214414 27.214414 0 0 0 27.214414-27.214415V36.43964a26.753153 26.753153 0 0 0-26.753153-27.214415z m-388.381982 230.63063a36.900901 36.900901 0 0 1-36.43964-36.439639V36.43964a36.43964 36.43964 0 0 1 72.879279 0v165.592792a36.900901 36.900901 0 0 1-35.978378 36.43964z m0-230.63063a27.214414 27.214414 0 0 0-26.753153 29.981982v165.592792a27.214414 27.214414 0 0 0 54.428828 0V36.43964A27.214414 27.214414 0 0 0 317.809009 9.225225z m273.527928 142.529729H432.663063a36.43964 36.43964 0 1 1 0-72.418018h158.673874a36.43964 36.43964 0 1 1 0 72.418018zM432.663063 88.562162a27.214414 27.214414 0 1 0 0 53.967568h158.673874a27.214414 27.214414 0 1 0 0-53.967568z" p-id="4631"></path></svg>